<svg xmlns="http://www.w3.org/2000/svg" xmlns:xlink="http://www.w3.org/1999/xlink" viewBox="0,0,256,256" width="48px" height="48px" fill-rule="nonzero"><g fill="none" fill-rule="nonzero" stroke="none" stroke-width="1" stroke-linecap="butt" stroke-linejoin="miter" stroke-miterlimit="10" stroke-dasharray="" stroke-dashoffset="0" font-family="none" font-weight="none" font-size="none" text-anchor="none" style="mix-blend-mode: normal"><g transform="scale(5.33333,5.33333)"><path d="M39.707,14.293l-10,-10c-0.187,-0.188 -0.441,-0.293 -0.707,-0.293h-16c-2.757,0 -5,2.243 -5,5v30c0,2.757 2.243,5 5,5h22c2.757,0 5,-2.243 5,-5v-24c0,-0.265 -0.105,-0.52 -0.293,-0.707z" fill="#d05252"></path><path d="M40,16h-7c-2.757,0 -5,-2.243 -5,-5v-7c0,-0.552 0.447,-1 1,-1c0.553,0 1,0.448 1,1v7c0,1.654 1.346,3 3,3h7c0.553,0 1,0.448 1,1c0,0.552 -0.447,1 -1,1z" fill="#635860"></path><path d="M32,25h-16c-0.553,0 -1,-0.448 -1,-1c0,-0.552 0.447,-1 1,-1h16c0.553,0 1,0.448 1,1c0,0.552 -0.447,1 -1,1z" fill="#635860"></path><path d="M32,30h-16c-0.553,0 -1,-0.448 -1,-1c0,-0.552 0.447,-1 1,-1h16c0.553,0 1,0.448 1,1c0,0.552 -0.447,1 -1,1z" fill="#635860"></path><path d="M26,35h-10c-0.553,0 -1,-0.448 -1,-1c0,-0.552 0.447,-1 1,-1h10c0.553,0 1,0.448 1,1c0,0.552 -0.447,1 -1,1z" fill="#635860"></path></g></g></svg>